<svg xmlns="http://www.w3.org/2000/svg" xmlns:xlink="http://www.w3.org/1999/xlink" width="2000" zoomAndPan="magnify" viewBox="0 0 1500 1499.999933" height="2000" preserveAspectRatio="xMidYMid meet" version="1.0"><defs><clipPath id="bd98939092"><path d="M 33 118 L 1469.808594 118 L 1469.808594 1382 L 33 1382 Z M 33 118 " clip-rule="nonzero"/></clipPath></defs><g clip-path="url(#bd98939092)"><path fill="#3d86f1" d="M 748.402344 118.472656 C 742.34375 119.175781 736.714844 121.917969 732.421875 126.257812 L 41.214844 817.476562 C 30.761719 828.015625 30.863281 845.046875 41.417969 855.488281 C 46.429688 860.441406 53.175781 863.226562 60.226562 863.257812 L 206.242188 863.257812 L 206.242188 1354.886719 C 206.285156 1369.648438 218.246094 1381.609375 233.023438 1381.667969 L 1269.859375 1381.667969 C 1284.621094 1381.609375 1296.582031 1369.648438 1296.640625 1354.886719 L 1296.640625 863.269531 L 1442.652344 863.269531 C 1457.503906 863.214844 1469.492188 851.136719 1469.433594 836.289062 C 1469.40625 829.238281 1466.621094 822.488281 1461.667969 817.476562 L 1293.179688 648.988281 L 1293.179688 418.296875 C 1293.136719 403.535156 1281.160156 391.570312 1266.398438 391.515625 L 1152.351562 391.515625 C 1137.589844 391.570312 1125.628906 403.535156 1125.570312 418.296875 L 1125.570312 481.367188 L 770.445312 126.257812 C 764.671875 120.441406 756.546875 117.566406 748.402344 118.472656 Z M 748.402344 118.472656 " fill-opacity="1" fill-rule="nonzero"/></g><path fill="#ffffff" d="M 728.742188 892.445312 C 869.667969 870.804688 887.566406 1007.425781 950.695312 1046.144531 C 1117.863281 1148.683594 1022.21875 1323.734375 885.777344 1278.8125 C 749.328125 1233.894531 649.941406 1263.101562 611.148438 1285.53125 C 499.570312 1350.03125 380.625 1146.917969 504.070312 1073.203125 C 668.320312 975.121094 614.324219 910.011719 728.742188 892.445312 Z M 728.742188 892.445312 " fill-opacity="1" fill-rule="nonzero"/><path fill="#ffffff" d="M 556.433594 847.867188 C 557.273438 849.953125 558.082031 852.046875 558.859375 854.152344 C 559.636719 856.257812 560.378906 858.375 561.085938 860.5 C 561.796875 862.625 562.472656 864.753906 563.113281 866.894531 C 563.753906 869.03125 564.359375 871.171875 564.929688 873.316406 C 565.5 875.464844 566.035156 877.609375 566.535156 879.757812 C 567.035156 881.90625 567.496094 884.054688 567.925781 886.199219 C 568.351562 888.347656 568.742188 890.488281 569.09375 892.625 C 569.449219 894.765625 569.765625 896.894531 570.042969 899.023438 C 570.324219 901.148438 570.5625 903.265625 570.769531 905.371094 C 570.972656 907.480469 571.136719 909.574219 571.265625 911.660156 C 571.394531 913.746094 571.484375 915.816406 571.539062 917.871094 C 571.589844 919.929688 571.605469 921.96875 571.582031 923.992188 C 571.558594 926.015625 571.496094 928.019531 571.398438 930.007812 C 571.296875 931.992188 571.160156 933.957031 570.984375 935.902344 C 570.808594 937.84375 570.597656 939.765625 570.347656 941.660156 C 570.097656 943.554688 569.808594 945.425781 569.484375 947.269531 C 569.15625 949.113281 568.796875 950.929688 568.394531 952.71875 C 567.996094 954.507812 567.5625 956.265625 567.089844 957.992188 C 566.617188 959.71875 566.109375 961.414062 565.566406 963.074219 C 565.023438 964.738281 564.441406 966.367188 563.828125 967.960938 C 563.214844 969.554688 562.566406 971.113281 561.882812 972.632812 C 561.199219 974.152344 560.480469 975.636719 559.730469 977.082031 C 558.980469 978.527344 558.195312 979.933594 557.378906 981.296875 C 556.566406 982.664062 555.714844 983.984375 554.835938 985.269531 C 553.957031 986.550781 553.046875 987.789062 552.105469 988.984375 C 551.164062 990.179688 550.191406 991.332031 549.191406 992.441406 C 548.191406 993.546875 547.164062 994.609375 546.105469 995.625 C 545.046875 996.636719 543.964844 997.605469 542.851562 998.527344 C 541.742188 999.449219 540.601562 1000.320312 539.441406 1001.148438 C 538.277344 1001.972656 537.089844 1002.746094 535.878906 1003.472656 C 534.664062 1004.199219 533.429688 1004.878906 532.171875 1005.503906 C 530.914062 1006.128906 529.636719 1006.707031 528.335938 1007.230469 C 527.035156 1007.753906 525.714844 1008.230469 524.375 1008.652344 C 523.035156 1009.074219 521.675781 1009.441406 520.296875 1009.761719 C 518.921875 1010.078125 517.527344 1010.34375 516.117188 1010.558594 C 514.707031 1010.773438 513.285156 1010.933594 511.84375 1011.042969 C 510.40625 1011.148438 508.953125 1011.207031 507.484375 1011.207031 C 506.019531 1011.210938 504.542969 1011.160156 503.054688 1011.058594 C 501.566406 1010.957031 500.066406 1010.800781 498.558594 1010.59375 C 497.050781 1010.386719 495.535156 1010.125 494.011719 1009.8125 C 492.488281 1009.503906 490.960938 1009.136719 489.425781 1008.722656 C 487.890625 1008.304688 486.351562 1007.835938 484.808594 1007.320312 C 483.265625 1006.800781 481.71875 1006.230469 480.171875 1005.609375 C 478.625 1004.988281 477.074219 1004.316406 475.527344 1003.597656 C 473.976562 1002.875 472.429688 1002.105469 470.886719 1001.285156 C 469.339844 1000.464844 467.796875 999.597656 466.257812 998.683594 C 464.722656 997.765625 463.1875 996.804688 461.660156 995.792969 C 460.132812 994.785156 458.609375 993.726562 457.09375 992.625 C 455.582031 991.523438 454.078125 990.378906 452.578125 989.1875 C 451.082031 987.996094 449.597656 986.761719 448.121094 985.484375 C 446.648438 984.207031 445.1875 982.886719 443.734375 981.527344 C 442.285156 980.167969 440.851562 978.765625 439.429688 977.324219 C 438.007812 975.882812 436.601562 974.40625 435.210938 972.890625 C 433.820312 971.371094 432.449219 969.820312 431.09375 968.230469 C 429.738281 966.640625 428.40625 965.015625 427.089844 963.355469 C 425.773438 961.695312 424.476562 960.003906 423.203125 958.28125 C 421.929688 956.558594 420.675781 954.804688 419.445312 953.019531 C 418.21875 951.234375 417.011719 949.421875 415.828125 947.582031 C 414.648438 945.738281 413.492188 943.871094 412.359375 941.980469 C 411.226562 940.085938 410.121094 938.167969 409.042969 936.226562 C 407.964844 934.289062 406.914062 932.324219 405.894531 930.339844 C 404.871094 928.359375 403.878906 926.355469 402.914062 924.332031 C 401.949219 922.3125 401.015625 920.273438 400.113281 918.21875 C 399.207031 916.164062 398.335938 914.09375 397.496094 912.011719 C 396.65625 909.929688 395.847656 907.832031 395.070312 905.726562 C 394.292969 903.621094 393.550781 901.503906 392.84375 899.378906 C 392.132812 897.253906 391.457031 895.125 390.816406 892.988281 C 390.175781 890.847656 389.570312 888.707031 389 886.5625 C 388.429688 884.417969 387.894531 882.269531 387.394531 880.121094 C 386.894531 877.972656 386.433594 875.824219 386.003906 873.679688 C 385.578125 871.535156 385.1875 869.390625 384.835938 867.253906 C 384.480469 865.117188 384.164062 862.984375 383.886719 860.859375 C 383.605469 858.734375 383.367188 856.617188 383.160156 854.507812 C 382.957031 852.402344 382.792969 850.304688 382.664062 848.21875 C 382.535156 846.136719 382.445312 844.066406 382.390625 842.007812 C 382.339844 839.953125 382.324219 837.910156 382.347656 835.886719 C 382.371094 833.863281 382.433594 831.859375 382.53125 829.875 C 382.632812 827.886719 382.769531 825.921875 382.945312 823.980469 C 383.121094 822.035156 383.332031 820.117188 383.582031 818.21875 C 383.835938 816.324219 384.121094 814.453125 384.445312 812.609375 C 384.773438 810.765625 385.132812 808.949219 385.535156 807.160156 C 385.933594 805.375 386.367188 803.617188 386.839844 801.890625 C 387.3125 800.160156 387.820312 798.46875 388.363281 796.804688 C 388.90625 795.140625 389.488281 793.515625 390.101562 791.917969 C 390.714844 790.324219 391.363281 788.769531 392.046875 787.246094 C 392.730469 785.726562 393.449219 784.242188 394.199219 782.796875 C 394.949219 781.351562 395.734375 779.949219 396.550781 778.582031 C 397.367188 777.21875 398.214844 775.894531 399.09375 774.613281 C 399.972656 773.332031 400.882812 772.089844 401.824219 770.894531 C 402.765625 769.699219 403.738281 768.546875 404.738281 767.441406 C 405.738281 766.332031 406.765625 765.273438 407.824219 764.257812 C 408.882812 763.242188 409.964844 762.273438 411.078125 761.351562 C 412.191406 760.429688 413.328125 759.558594 414.488281 758.734375 C 415.652344 757.910156 416.839844 757.132812 418.054688 756.40625 C 419.265625 755.679688 420.5 755.003906 421.757812 754.375 C 423.015625 753.75 424.292969 753.175781 425.59375 752.648438 C 426.894531 752.125 428.214844 751.652344 429.554688 751.230469 C 430.894531 750.808594 432.253906 750.4375 433.632812 750.121094 C 435.007812 749.800781 436.402344 749.535156 437.8125 749.320312 C 439.222656 749.109375 440.644531 748.945312 442.085938 748.839844 C 443.523438 748.730469 444.976562 748.675781 446.445312 748.671875 C 447.910156 748.667969 449.386719 748.71875 450.875 748.820312 C 452.363281 748.921875 453.863281 749.078125 455.371094 749.285156 C 456.878906 749.492188 458.394531 749.753906 459.917969 750.066406 C 461.441406 750.378906 462.96875 750.742188 464.503906 751.160156 C 466.039062 751.574219 467.578125 752.042969 469.121094 752.5625 C 470.664062 753.082031 472.210938 753.652344 473.757812 754.273438 C 475.304688 754.890625 476.855469 755.5625 478.402344 756.285156 C 479.953125 757.003906 481.5 757.773438 483.042969 758.59375 C 484.589844 759.414062 486.132812 760.28125 487.671875 761.199219 C 489.207031 762.113281 490.742188 763.078125 492.269531 764.085938 C 493.800781 765.097656 495.320312 766.152344 496.835938 767.253906 C 498.347656 768.355469 499.855469 769.503906 501.351562 770.695312 C 502.847656 771.886719 504.332031 773.117188 505.808594 774.394531 C 507.28125 775.675781 508.746094 776.992188 510.195312 778.351562 C 511.644531 779.714844 513.082031 781.113281 514.5 782.554688 C 515.921875 783.996094 517.328125 785.472656 518.71875 786.992188 C 520.109375 788.507812 521.480469 790.0625 522.835938 791.652344 C 524.191406 793.242188 525.523438 794.867188 526.839844 796.523438 C 528.15625 798.183594 529.453125 799.875 530.726562 801.597656 C 532 803.320312 533.253906 805.074219 534.484375 806.859375 C 535.710938 808.644531 536.917969 810.457031 538.101562 812.300781 C 539.28125 814.140625 540.441406 816.007812 541.570312 817.902344 C 542.703125 819.792969 543.808594 821.710938 544.886719 823.652344 C 545.964844 825.59375 547.015625 827.554688 548.035156 829.539062 C 549.058594 831.523438 550.050781 833.523438 551.015625 835.546875 C 551.980469 837.566406 552.914062 839.605469 553.816406 841.660156 C 554.722656 843.714844 555.59375 845.785156 556.433594 847.867188 Z M 556.433594 847.867188 " fill-opacity="1" fill-rule="nonzero"/><path fill="#ffffff" d="M 1073.4375 759.347656 C 1074.753906 759.832031 1076.050781 760.367188 1077.328125 760.953125 C 1078.605469 761.539062 1079.859375 762.175781 1081.09375 762.863281 C 1082.328125 763.550781 1083.539062 764.289062 1084.730469 765.074219 C 1085.917969 765.863281 1087.082031 766.699219 1088.222656 767.585938 C 1089.363281 768.46875 1090.476562 769.402344 1091.566406 770.386719 C 1092.65625 771.367188 1093.71875 772.394531 1094.753906 773.46875 C 1095.789062 774.542969 1096.796875 775.664062 1097.773438 776.828125 C 1098.753906 777.996094 1099.703125 779.203125 1100.625 780.457031 C 1101.542969 781.710938 1102.433594 783.007812 1103.292969 784.34375 C 1104.152344 785.683594 1104.980469 787.0625 1105.777344 788.484375 C 1106.570312 789.902344 1107.335938 791.363281 1108.066406 792.863281 C 1108.796875 794.359375 1109.496094 795.898438 1110.160156 797.46875 C 1110.824219 799.042969 1111.457031 800.652344 1112.050781 802.296875 C 1112.648438 803.941406 1113.210938 805.621094 1113.738281 807.332031 C 1114.265625 809.042969 1114.753906 810.785156 1115.210938 812.558594 C 1115.667969 814.335938 1116.085938 816.136719 1116.46875 817.972656 C 1116.855469 819.804688 1117.199219 821.664062 1117.511719 823.550781 C 1117.820312 825.4375 1118.097656 827.351562 1118.332031 829.285156 C 1118.570312 831.222656 1118.769531 833.183594 1118.933594 835.164062 C 1119.09375 837.144531 1119.21875 839.148438 1119.308594 841.171875 C 1119.394531 843.191406 1119.445312 845.230469 1119.457031 847.289062 C 1119.472656 849.347656 1119.445312 851.417969 1119.386719 853.507812 C 1119.324219 855.59375 1119.222656 857.695312 1119.085938 859.808594 C 1118.949219 861.921875 1118.777344 864.042969 1118.5625 866.175781 C 1118.351562 868.308594 1118.105469 870.449219 1117.820312 872.597656 C 1117.535156 874.746094 1117.210938 876.902344 1116.855469 879.058594 C 1116.496094 881.21875 1116.101562 883.378906 1115.667969 885.542969 C 1115.238281 887.703125 1114.773438 889.867188 1114.269531 892.03125 C 1113.765625 894.191406 1113.230469 896.351562 1112.65625 898.511719 C 1112.085938 900.667969 1111.476562 902.816406 1110.835938 904.964844 C 1110.195312 907.109375 1109.519531 909.25 1108.8125 911.378906 C 1108.101562 913.507812 1107.363281 915.628906 1106.585938 917.738281 C 1105.8125 919.847656 1105.007812 921.941406 1104.167969 924.023438 C 1103.332031 926.105469 1102.464844 928.175781 1101.5625 930.226562 C 1100.664062 932.277344 1099.734375 934.308594 1098.777344 936.324219 C 1097.816406 938.339844 1096.832031 940.335938 1095.8125 942.308594 C 1094.796875 944.28125 1093.753906 946.234375 1092.683594 948.164062 C 1091.613281 950.089844 1090.515625 951.992188 1089.394531 953.871094 C 1088.269531 955.75 1087.121094 957.597656 1085.949219 959.421875 C 1084.777344 961.246094 1083.582031 963.039062 1082.363281 964.800781 C 1081.144531 966.566406 1079.902344 968.296875 1078.640625 969.996094 C 1077.378906 971.695312 1076.09375 973.363281 1074.792969 974.992188 C 1073.488281 976.625 1072.167969 978.222656 1070.824219 979.78125 C 1069.484375 981.34375 1068.125 982.867188 1066.75 984.351562 C 1065.375 985.835938 1063.984375 987.28125 1062.578125 988.6875 C 1061.171875 990.09375 1059.753906 991.457031 1058.320312 992.78125 C 1056.886719 994.105469 1055.441406 995.386719 1053.984375 996.625 C 1052.527344 997.863281 1051.058594 999.054688 1049.578125 1000.207031 C 1048.101562 1001.355469 1046.613281 1002.457031 1045.117188 1003.515625 C 1043.625 1004.574219 1042.121094 1005.585938 1040.613281 1006.550781 C 1039.101562 1007.515625 1037.589844 1008.429688 1036.070312 1009.300781 C 1034.550781 1010.167969 1033.03125 1010.984375 1031.507812 1011.753906 C 1029.980469 1012.527344 1028.457031 1013.246094 1026.929688 1013.914062 C 1025.402344 1014.585938 1023.875 1015.203125 1022.347656 1015.769531 C 1020.820312 1016.339844 1019.296875 1016.855469 1017.777344 1017.320312 C 1016.257812 1017.785156 1014.738281 1018.199219 1013.226562 1018.558594 C 1011.714844 1018.917969 1010.207031 1019.226562 1008.707031 1019.484375 C 1007.207031 1019.738281 1005.714844 1019.941406 1004.230469 1020.089844 C 1002.746094 1020.238281 1001.269531 1020.335938 999.804688 1020.378906 C 998.339844 1020.425781 996.886719 1020.414062 995.441406 1020.351562 C 994 1020.289062 992.570312 1020.171875 991.15625 1020.003906 C 989.738281 1019.835938 988.339844 1019.613281 986.953125 1019.339844 C 985.566406 1019.066406 984.195312 1018.738281 982.84375 1018.359375 C 981.492188 1017.980469 980.15625 1017.550781 978.839844 1017.066406 C 977.523438 1016.582031 976.226562 1016.050781 974.949219 1015.460938 C 973.671875 1014.875 972.417969 1014.238281 971.183594 1013.550781 C 969.949219 1012.863281 968.734375 1012.125 967.546875 1011.339844 C 966.359375 1010.550781 965.195312 1009.714844 964.054688 1008.828125 C 962.914062 1007.945312 961.796875 1007.011719 960.710938 1006.03125 C 959.621094 1005.050781 958.558594 1004.019531 957.523438 1002.945312 C 956.488281 1001.871094 955.480469 1000.75 954.5 999.585938 C 953.523438 998.421875 952.574219 997.210938 951.652344 995.957031 C 950.734375 994.703125 949.84375 993.40625 948.984375 992.070312 C 948.125 990.730469 947.296875 989.351562 946.5 987.929688 C 945.703125 986.511719 944.941406 985.050781 944.210938 983.550781 C 943.476562 982.054688 942.78125 980.519531 942.117188 978.945312 C 941.449219 977.371094 940.820312 975.761719 940.222656 974.117188 C 939.628906 972.472656 939.066406 970.796875 938.539062 969.082031 C 938.011719 967.371094 937.523438 965.628906 937.066406 963.855469 C 936.609375 962.082031 936.191406 960.277344 935.808594 958.445312 C 935.421875 956.609375 935.074219 954.75 934.765625 952.863281 C 934.453125 950.976562 934.179688 949.066406 933.945312 947.128906 C 933.707031 945.191406 933.507812 943.230469 933.34375 941.25 C 933.183594 939.269531 933.058594 937.265625 932.96875 935.246094 C 932.882812 933.222656 932.832031 931.183594 932.816406 929.125 C 932.804688 927.070312 932.828125 924.996094 932.890625 922.910156 C 932.953125 920.820312 933.054688 918.71875 933.191406 916.609375 C 933.328125 914.496094 933.5 912.371094 933.710938 910.238281 C 933.925781 908.105469 934.171875 905.964844 934.457031 903.816406 C 934.742188 901.667969 935.066406 899.515625 935.421875 897.355469 C 935.78125 895.195312 936.175781 893.035156 936.609375 890.875 C 937.039062 888.710938 937.503906 886.546875 938.007812 884.382812 C 938.511719 882.222656 939.046875 880.0625 939.621094 877.90625 C 940.191406 875.75 940.800781 873.597656 941.441406 871.449219 C 942.082031 869.304688 942.757812 867.167969 943.464844 865.035156 C 944.175781 862.90625 944.914062 860.785156 945.6875 858.679688 C 946.464844 856.570312 947.269531 854.472656 948.105469 852.390625 C 948.945312 850.308594 949.8125 848.242188 950.710938 846.191406 C 951.613281 844.136719 952.542969 842.105469 953.5 840.089844 C 954.460938 838.074219 955.445312 836.082031 956.460938 834.105469 C 957.480469 832.132812 958.523438 830.179688 959.59375 828.253906 C 960.664062 826.324219 961.761719 824.421875 962.882812 822.542969 C 964.007812 820.664062 965.152344 818.816406 966.328125 816.992188 C 967.5 815.171875 968.695312 813.375 969.914062 811.613281 C 971.132812 809.851562 972.375 808.117188 973.636719 806.417969 C 974.898438 804.71875 976.183594 803.054688 977.484375 801.421875 C 978.789062 799.789062 980.109375 798.191406 981.453125 796.632812 C 982.792969 795.070312 984.148438 793.550781 985.523438 792.0625 C 986.898438 790.578125 988.289062 789.132812 989.695312 787.726562 C 991.101562 786.320312 992.523438 784.957031 993.957031 783.632812 C 995.390625 782.308594 996.835938 781.027344 998.292969 779.789062 C 999.75 778.554688 1001.21875 777.359375 1002.699219 776.210938 C 1004.175781 775.058594 1005.664062 773.957031 1007.160156 772.898438 C 1008.652344 771.839844 1010.15625 770.828125 1011.664062 769.863281 C 1013.171875 768.898438 1014.6875 767.984375 1016.207031 767.117188 C 1017.722656 766.246094 1019.246094 765.429688 1020.769531 764.660156 C 1022.296875 763.890625 1023.820312 763.167969 1025.347656 762.5 C 1026.875 761.832031 1028.402344 761.210938 1029.929688 760.644531 C 1031.453125 760.074219 1032.980469 759.558594 1034.5 759.09375 C 1036.019531 758.628906 1037.539062 758.21875 1039.050781 757.855469 C 1040.5625 757.496094 1042.070312 757.1875 1043.570312 756.933594 C 1045.070312 756.675781 1046.5625 756.472656 1048.046875 756.324219 C 1049.53125 756.175781 1051.007812 756.078125 1052.472656 756.035156 C 1053.9375 755.992188 1055.390625 756 1056.832031 756.0625 C 1058.277344 756.125 1059.707031 756.242188 1061.121094 756.410156 C 1062.535156 756.578125 1063.9375 756.800781 1065.324219 757.074219 C 1066.710938 757.347656 1068.078125 757.675781 1069.433594 758.054688 C 1070.785156 758.433594 1072.121094 758.863281 1073.4375 759.347656 Z M 1073.4375 759.347656 " fill-opacity="1" fill-rule="nonzero"/><path fill="#ffffff" d="M 737.816406 716.851562 C 738.210938 719.0625 738.570312 721.28125 738.894531 723.5 C 739.21875 725.722656 739.511719 727.945312 739.765625 730.171875 C 740.023438 732.394531 740.246094 734.621094 740.429688 736.84375 C 740.617188 739.066406 740.769531 741.289062 740.886719 743.503906 C 741.003906 745.722656 741.085938 747.933594 741.128906 750.140625 C 741.175781 752.34375 741.1875 754.539062 741.164062 756.726562 C 741.140625 758.917969 741.078125 761.09375 740.984375 763.257812 C 740.890625 765.421875 740.761719 767.574219 740.597656 769.710938 C 740.429688 771.847656 740.230469 773.96875 739.996094 776.074219 C 739.761719 778.179688 739.492188 780.265625 739.1875 782.332031 C 738.886719 784.398438 738.546875 786.441406 738.175781 788.464844 C 737.800781 790.488281 737.398438 792.488281 736.957031 794.464844 C 736.515625 796.4375 736.042969 798.386719 735.535156 800.3125 C 735.03125 802.234375 734.492188 804.128906 733.917969 805.992188 C 733.347656 807.859375 732.746094 809.695312 732.109375 811.496094 C 731.472656 813.300781 730.804688 815.074219 730.109375 816.808594 C 729.410156 818.546875 728.679688 820.25 727.921875 821.917969 C 727.164062 823.585938 726.375 825.214844 725.558594 826.808594 C 724.738281 828.402344 723.894531 829.953125 723.019531 831.46875 C 722.144531 832.984375 721.242188 834.457031 720.3125 835.890625 C 719.382812 837.324219 718.429688 838.714844 717.445312 840.0625 C 716.464844 841.410156 715.457031 842.714844 714.425781 843.972656 C 713.390625 845.234375 712.335938 846.445312 711.257812 847.613281 C 710.175781 848.78125 709.074219 849.902344 707.949219 850.976562 C 706.824219 852.050781 705.675781 853.074219 704.507812 854.050781 C 703.34375 855.027344 702.15625 855.953125 700.949219 856.832031 C 699.742188 857.707031 698.515625 858.535156 697.269531 859.3125 C 696.027344 860.085938 694.765625 860.808594 693.488281 861.484375 C 692.210938 862.15625 690.917969 862.773438 689.609375 863.34375 C 688.300781 863.910156 686.980469 864.425781 685.644531 864.886719 C 684.308594 865.347656 682.960938 865.753906 681.601562 866.109375 C 680.242188 866.464844 678.871094 866.761719 677.492188 867.007812 C 676.109375 867.253906 674.71875 867.445312 673.320312 867.582031 C 671.921875 867.71875 670.519531 867.800781 669.105469 867.828125 C 667.691406 867.855469 666.273438 867.832031 664.851562 867.75 C 663.425781 867.667969 662 867.53125 660.570312 867.339844 C 659.136719 867.148438 657.703125 866.90625 656.269531 866.605469 C 654.835938 866.308594 653.398438 865.953125 651.964844 865.546875 C 650.527344 865.140625 649.09375 864.679688 647.660156 864.167969 C 646.226562 863.652344 644.800781 863.085938 643.371094 862.464844 C 641.945312 861.847656 640.523438 861.175781 639.109375 860.453125 C 637.691406 859.730469 636.28125 858.953125 634.878906 858.128906 C 633.476562 857.300781 632.082031 856.425781 630.695312 855.5 C 629.308594 854.574219 627.929688 853.597656 626.5625 852.574219 C 625.195312 851.550781 623.839844 850.476562 622.496094 849.355469 C 621.15625 848.238281 619.824219 847.070312 618.507812 845.855469 C 617.191406 844.644531 615.886719 843.386719 614.601562 842.082031 C 613.3125 840.777344 612.042969 839.433594 610.789062 838.042969 C 609.53125 836.652344 608.296875 835.21875 607.078125 833.746094 C 605.859375 832.273438 604.660156 830.757812 603.476562 829.203125 C 602.296875 827.652344 601.136719 826.058594 600 824.429688 C 598.859375 822.796875 597.746094 821.132812 596.652344 819.429688 C 595.554688 817.726562 594.484375 815.992188 593.4375 814.21875 C 592.390625 812.449219 591.367188 810.648438 590.371094 808.8125 C 589.371094 806.976562 588.398438 805.113281 587.453125 803.21875 C 586.507812 801.324219 585.589844 799.402344 584.695312 797.453125 C 583.804688 795.503906 582.941406 793.527344 582.105469 791.53125 C 581.269531 789.53125 580.460938 787.507812 579.683594 785.460938 C 578.90625 783.417969 578.160156 781.351562 577.441406 779.265625 C 576.726562 777.179688 576.039062 775.078125 575.382812 772.957031 C 574.726562 770.832031 574.105469 768.699219 573.511719 766.546875 C 572.921875 764.394531 572.363281 762.230469 571.835938 760.050781 C 571.308594 757.875 570.8125 755.6875 570.351562 753.492188 C 569.890625 751.292969 569.464844 749.089844 569.070312 746.878906 C 568.675781 744.667969 568.316406 742.449219 567.992188 740.230469 C 567.667969 738.007812 567.375 735.785156 567.121094 733.558594 C 566.863281 731.335938 566.640625 729.109375 566.457031 726.886719 C 566.269531 724.664062 566.117188 722.441406 566 720.226562 C 565.882812 718.007812 565.800781 715.796875 565.757812 713.589844 C 565.710938 711.386719 565.699219 709.191406 565.722656 707.003906 C 565.746094 704.8125 565.808594 702.636719 565.902344 700.472656 C 565.996094 698.308594 566.125 696.15625 566.289062 694.019531 C 566.457031 691.882812 566.65625 689.761719 566.890625 687.65625 C 567.125 685.550781 567.394531 683.464844 567.699219 681.398438 C 568 679.332031 568.339844 677.289062 568.710938 675.265625 C 569.085938 673.242188 569.492188 671.242188 569.929688 669.265625 C 570.371094 667.292969 570.84375 665.34375 571.351562 663.417969 C 571.855469 661.496094 572.394531 659.601562 572.96875 657.738281 C 573.539062 655.871094 574.144531 654.035156 574.777344 652.234375 C 575.414062 650.429688 576.082031 648.65625 576.777344 646.921875 C 577.476562 645.183594 578.207031 643.480469 578.964844 641.8125 C 579.722656 640.144531 580.511719 638.515625 581.328125 636.921875 C 582.148438 635.328125 582.992188 633.773438 583.867188 632.261719 C 584.742188 630.746094 585.644531 629.273438 586.574219 627.839844 C 587.503906 626.40625 588.460938 625.015625 589.441406 623.667969 C 590.421875 622.320312 591.429688 621.015625 592.460938 619.757812 C 593.496094 618.496094 594.550781 617.285156 595.632812 616.117188 C 596.710938 614.949219 597.8125 613.828125 598.9375 612.753906 C 600.0625 611.679688 601.210938 610.65625 602.378906 609.679688 C 603.542969 608.703125 604.730469 607.777344 605.9375 606.898438 C 607.144531 606.023438 608.371094 605.195312 609.617188 604.417969 C 610.859375 603.644531 612.121094 602.921875 613.398438 602.246094 C 614.675781 601.574219 615.96875 600.953125 617.277344 600.386719 C 618.585938 599.820312 619.90625 599.304688 621.242188 598.84375 C 622.578125 598.382812 623.925781 597.976562 625.285156 597.621094 C 626.644531 597.265625 628.015625 596.96875 629.394531 596.722656 C 630.777344 596.476562 632.167969 596.285156 633.566406 596.148438 C 634.964844 596.011719 636.367188 595.929688 637.78125 595.902344 C 639.195312 595.875 640.613281 595.898438 642.035156 595.980469 C 643.460938 596.0625 644.886719 596.199219 646.316406 596.390625 C 647.75 596.582031 649.183594 596.824219 650.617188 597.125 C 652.050781 597.421875 653.488281 597.777344 654.921875 598.183594 C 656.359375 598.589844 657.792969 599.050781 659.226562 599.5625 C 660.660156 600.078125 662.089844 600.644531 663.515625 601.265625 C 664.941406 601.882812 666.363281 602.554688 667.777344 603.277344 C 669.195312 604 670.605469 604.777344 672.007812 605.601562 C 673.410156 606.429688 674.804688 607.304688 676.191406 608.230469 C 677.578125 609.15625 678.957031 610.132812 680.324219 611.15625 C 681.691406 612.179688 683.046875 613.253906 684.390625 614.375 C 685.730469 615.492188 687.0625 616.660156 688.378906 617.875 C 689.695312 619.085938 691 620.34375 692.285156 621.648438 C 693.574219 622.953125 694.84375 624.296875 696.097656 625.6875 C 697.355469 627.078125 698.589844 628.511719 699.808594 629.984375 C 701.027344 631.457031 702.226562 632.972656 703.410156 634.527344 C 704.589844 636.078125 705.75 637.671875 706.886719 639.300781 C 708.027344 640.933594 709.140625 642.597656 710.238281 644.300781 C 711.332031 646.003906 712.402344 647.738281 713.449219 649.511719 C 714.496094 651.28125 715.519531 653.082031 716.515625 654.917969 C 717.515625 656.753906 718.488281 658.617188 719.433594 660.511719 C 720.378906 662.40625 721.296875 664.328125 722.191406 666.277344 C 723.082031 668.226562 723.945312 670.203125 724.78125 672.199219 C 725.617188 674.199219 726.425781 676.222656 727.203125 678.269531 C 727.980469 680.3125 728.726562 682.378906 729.445312 684.464844 C 730.160156 686.550781 730.847656 688.652344 731.503906 690.773438 C 732.160156 692.898438 732.78125 695.03125 733.375 697.183594 C 733.964844 699.335938 734.527344 701.5 735.050781 703.679688 C 735.578125 705.855469 736.074219 708.042969 736.535156 710.238281 C 736.996094 712.4375 737.421875 714.640625 737.816406 716.851562 Z M 737.816406 716.851562 " fill-opacity="1" fill-rule="nonzero"/><path fill="#ffffff" d="M 886.972656 593.960938 C 888.359375 594.183594 889.734375 594.457031 891.101562 594.789062 C 892.464844 595.117188 893.820312 595.503906 895.164062 595.941406 C 896.507812 596.378906 897.835938 596.871094 899.15625 597.414062 C 900.472656 597.957031 901.777344 598.554688 903.066406 599.207031 C 904.355469 599.855469 905.628906 600.558594 906.886719 601.3125 C 908.140625 602.066406 909.382812 602.871094 910.605469 603.726562 C 911.828125 604.582031 913.03125 605.488281 914.214844 606.445312 C 915.398438 607.398438 916.5625 608.40625 917.707031 609.457031 C 918.851562 610.511719 919.972656 611.613281 921.070312 612.761719 C 922.171875 613.910156 923.25 615.105469 924.304688 616.347656 C 925.359375 617.585938 926.386719 618.875 927.394531 620.203125 C 928.398438 621.535156 929.378906 622.90625 930.332031 624.324219 C 931.285156 625.742188 932.214844 627.199219 933.117188 628.699219 C 934.015625 630.195312 934.890625 631.734375 935.734375 633.316406 C 936.582031 634.894531 937.398438 636.507812 938.183594 638.164062 C 938.972656 639.816406 939.730469 641.507812 940.460938 643.230469 C 941.1875 644.957031 941.886719 646.714844 942.550781 648.507812 C 943.21875 650.300781 943.855469 652.125 944.460938 653.980469 C 945.0625 655.835938 945.636719 657.71875 946.175781 659.632812 C 946.714844 661.546875 947.222656 663.488281 947.695312 665.453125 C 948.171875 667.421875 948.613281 669.414062 949.019531 671.429688 C 949.425781 673.445312 949.800781 675.484375 950.140625 677.546875 C 950.480469 679.605469 950.785156 681.6875 951.058594 683.789062 C 951.328125 685.886719 951.566406 688.003906 951.769531 690.140625 C 951.96875 692.273438 952.136719 694.421875 952.269531 696.585938 C 952.402344 698.75 952.5 700.921875 952.5625 703.109375 C 952.625 705.296875 952.652344 707.492188 952.644531 709.699219 C 952.636719 711.90625 952.59375 714.117188 952.515625 716.335938 C 952.4375 718.554688 952.324219 720.777344 952.175781 723.003906 C 952.03125 725.230469 951.847656 727.457031 951.628906 729.6875 C 951.414062 731.917969 951.160156 734.144531 950.875 736.371094 C 950.585938 738.597656 950.265625 740.820312 949.914062 743.039062 C 949.558594 745.257812 949.167969 747.46875 948.746094 749.671875 C 948.324219 751.878906 947.867188 754.074219 947.378906 756.257812 C 946.890625 758.445312 946.367188 760.617188 945.816406 762.78125 C 945.261719 764.941406 944.675781 767.089844 944.054688 769.222656 C 943.4375 771.355469 942.789062 773.46875 942.109375 775.566406 C 941.425781 777.664062 940.714844 779.742188 939.972656 781.800781 C 939.234375 783.859375 938.460938 785.894531 937.660156 787.910156 C 936.859375 789.925781 936.03125 791.914062 935.171875 793.878906 C 934.316406 795.84375 933.429688 797.78125 932.515625 799.691406 C 931.605469 801.601562 930.664062 803.480469 929.699219 805.335938 C 928.734375 807.1875 927.742188 809.007812 926.726562 810.796875 C 925.710938 812.582031 924.667969 814.339844 923.605469 816.058594 C 922.539062 817.78125 921.453125 819.46875 920.34375 821.117188 C 919.234375 822.765625 918.101562 824.378906 916.949219 825.953125 C 915.796875 827.527344 914.621094 829.0625 913.429688 830.554688 C 912.238281 832.050781 911.027344 833.503906 909.796875 834.917969 C 908.566406 836.328125 907.316406 837.695312 906.054688 839.023438 C 904.789062 840.347656 903.507812 841.628906 902.214844 842.863281 C 900.917969 844.101562 899.609375 845.289062 898.285156 846.433594 C 896.960938 847.578125 895.625 848.671875 894.277344 849.722656 C 892.925781 850.769531 891.566406 851.769531 890.199219 852.71875 C 888.828125 853.667969 887.449219 854.570312 886.058594 855.421875 C 884.671875 856.269531 883.273438 857.070312 881.871094 857.816406 C 880.46875 858.566406 879.058594 859.261719 877.640625 859.90625 C 876.226562 860.550781 874.808594 861.140625 873.382812 861.679688 C 871.960938 862.21875 870.535156 862.703125 869.105469 863.136719 C 867.679688 863.570312 866.25 863.945312 864.820312 864.269531 C 863.390625 864.59375 861.960938 864.863281 860.535156 865.078125 C 859.105469 865.296875 857.683594 865.457031 856.261719 865.5625 C 854.839844 865.667969 853.421875 865.71875 852.007812 865.71875 C 850.59375 865.714844 849.1875 865.65625 847.785156 865.542969 C 846.386719 865.433594 844.992188 865.265625 843.609375 865.042969 C 842.222656 864.820312 840.847656 864.546875 839.484375 864.214844 C 838.117188 863.886719 836.761719 863.5 835.417969 863.0625 C 834.074219 862.625 832.746094 862.132812 831.425781 861.589844 C 830.109375 861.046875 828.804688 860.449219 827.515625 859.796875 C 826.226562 859.148438 824.953125 858.445312 823.699219 857.691406 C 822.441406 856.9375 821.199219 856.132812 819.976562 855.277344 C 818.757812 854.421875 817.550781 853.515625 816.367188 852.558594 C 815.183594 851.605469 814.019531 850.597656 812.875 849.546875 C 811.734375 848.492188 810.609375 847.390625 809.511719 846.242188 C 808.410156 845.09375 807.332031 843.898438 806.277344 842.65625 C 805.226562 841.417969 804.195312 840.132812 803.191406 838.800781 C 802.183594 837.46875 801.203125 836.097656 800.25 834.679688 C 799.296875 833.261719 798.367188 831.804688 797.46875 830.304688 C 796.566406 828.808594 795.691406 827.269531 794.847656 825.6875 C 794.003906 824.109375 793.183594 822.496094 792.398438 820.839844 C 791.609375 819.1875 790.851562 817.496094 790.125 815.773438 C 789.394531 814.046875 788.699219 812.289062 788.03125 810.496094 C 787.363281 808.703125 786.726562 806.878906 786.125 805.023438 C 785.519531 803.167969 784.945312 801.285156 784.40625 799.371094 C 783.867188 797.457031 783.359375 795.515625 782.886719 793.550781 C 782.410156 791.582031 781.96875 789.589844 781.5625 787.574219 C 781.15625 785.558594 780.78125 783.519531 780.441406 781.457031 C 780.101562 779.398438 779.796875 777.316406 779.523438 775.214844 C 779.253906 773.117188 779.015625 771 778.8125 768.863281 C 778.613281 766.730469 778.445312 764.582031 778.3125 762.417969 C 778.179688 760.257812 778.082031 758.082031 778.019531 755.894531 C 777.957031 753.707031 777.929688 751.511719 777.9375 749.304688 C 777.945312 747.097656 777.988281 744.886719 778.066406 742.667969 C 778.144531 740.449219 778.257812 738.226562 778.40625 736 C 778.550781 733.773438 778.734375 731.546875 778.953125 729.316406 C 779.167969 727.085938 779.421875 724.859375 779.707031 722.632812 C 779.996094 720.40625 780.316406 718.183594 780.671875 715.964844 C 781.023438 713.746094 781.414062 711.535156 781.835938 709.332031 C 782.257812 707.125 782.714844 704.929688 783.203125 702.746094 C 783.691406 700.558594 784.214844 698.386719 784.769531 696.222656 C 785.320312 694.0625 785.90625 691.914062 786.527344 689.78125 C 787.144531 687.648438 787.792969 685.535156 788.472656 683.4375 C 789.15625 681.339844 789.867188 679.261719 790.609375 677.203125 C 791.351562 675.144531 792.121094 673.109375 792.921875 671.09375 C 793.722656 669.082031 794.550781 667.089844 795.410156 665.125 C 796.265625 663.160156 797.152344 661.222656 798.066406 659.3125 C 798.976562 657.402344 799.917969 655.523438 800.882812 653.667969 C 801.847656 651.816406 802.839844 649.996094 803.855469 648.207031 C 804.871094 646.421875 805.914062 644.664062 806.976562 642.945312 C 808.042969 641.222656 809.128906 639.535156 810.238281 637.886719 C 811.347656 636.238281 812.480469 634.625 813.632812 633.050781 C 814.785156 631.476562 815.960938 629.941406 817.152344 628.449219 C 818.34375 626.953125 819.558594 625.5 820.785156 624.085938 C 822.015625 622.675781 823.265625 621.308594 824.527344 619.980469 C 825.792969 618.65625 827.074219 617.375 828.367188 616.140625 C 829.664062 614.902344 830.972656 613.714844 832.296875 612.570312 C 833.621094 611.425781 834.957031 610.332031 836.304688 609.28125 C 837.65625 608.234375 839.015625 607.234375 840.386719 606.285156 C 841.753906 605.335938 843.132812 604.433594 844.523438 603.582031 C 845.910156 602.734375 847.308594 601.933594 848.710938 601.1875 C 850.117188 600.4375 851.523438 599.742188 852.941406 599.097656 C 854.355469 598.453125 855.773438 597.863281 857.199219 597.324219 C 858.621094 596.785156 860.046875 596.300781 861.476562 595.867188 C 862.902344 595.433594 864.332031 595.058594 865.761719 594.734375 C 867.191406 594.410156 868.621094 594.140625 870.046875 593.925781 C 871.476562 593.707031 872.902344 593.546875 874.324219 593.441406 C 875.746094 593.335938 877.160156 593.285156 878.574219 593.285156 C 879.988281 593.289062 881.394531 593.347656 882.796875 593.460938 C 884.195312 593.570312 885.589844 593.738281 886.972656 593.960938 Z M 886.972656 593.960938 " fill-opacity="1" fill-rule="nonzero"/></svg>